name rise42.5664peak47.7979fall81.9185.mot
datacolumns 19
datarows 32
range 16.57160400000000 16.62326700000000
endheader
time	ground_force1_vx	ground_force1_vy	ground_force1_vz	ground_force1_px	ground_force1_py	ground_force1_pz	ground_force2_vx	ground_force2_vy	ground_force2_vz	ground_force2_px	ground_force2_py	ground_force2_pz	ground_torque1_x	ground_torque1_y	ground_torque1_z	ground_torque2_x	ground_torque2_y	ground_torque2_z	
16.57160400000000	-42.04639700000000	808.88050499999997	52.48997800000000	0.09445500000000	0.00000000000000	0.10835000000000	-7.67472600000000	37.52396400000000	6.87346600000000	0.33180700000000	0.00000000000000	-0.06022500000000	0.00000000000000	18.37300100000000	0.00000000000000	0.00000000000000	3.75962100000000	0.00000000000000	
16.57326700000000	-42.30328000000000	806.61689400000000	52.18317800000000	0.09392200000000	0.00000000000000	0.10825000000000	-8.51017300000000	43.51513000000000	7.76561700000000	0.33569900000000	0.00000000000000	-0.06051100000000	0.00000000000000	18.26336400000000	0.00000000000000	0.00000000000000	4.30746300000000	0.00000000000000	
16.57494400000000	-42.57648200000000	804.25045899999998	51.85334500000000	0.09339100000000	0.00000000000000	0.10814700000000	-9.22592200000000	49.46318700000000	8.59092300000000	0.33922500000000	0.00000000000000	-0.06078300000000	0.00000000000000	18.15510700000000	0.00000000000000	0.00000000000000	4.83035000000000	0.00000000000000	
16.57659900000000	-42.86647200000000	801.78098699999998	51.50061200000000	0.09286100000000	0.00000000000000	0.10804100000000	-9.80142000000000	55.28347100000000	9.33187100000000	0.34242500000000	0.00000000000000	-0.06104400000000	0.00000000000000	18.04840100000000	0.00000000000000	0.00000000000000	5.31745300000000	0.00000000000000	
16.57826500000000	-43.17365900000000	799.20821300000000	51.12515500000000	0.09233100000000	0.00000000000000	0.10793100000000	-10.22390900000000	60.91555700000000	9.97682500000000	0.34533500000000	0.00000000000000	-0.06129600000000	0.00000000000000	17.94340600000000	0.00000000000000	0.00000000000000	5.76098500000000	0.00000000000000	
16.57995300000000	-43.49838600000000	796.53180999999995	50.72719400000000	0.09180100000000	0.00000000000000	0.10781900000000	-10.48838700000000	66.32470499999999	10.52011500000000	0.34798300000000	0.00000000000000	-0.06153900000000	0.00000000000000	17.84027200000000	0.00000000000000	0.00000000000000	6.15636300000000	0.00000000000000	
16.58160300000000	-43.84092800000000	793.75139200000001	50.30698700000000	0.09127100000000	0.00000000000000	0.10770400000000	-10.59694500000000	71.50095899999999	10.96162300000000	0.35039600000000	0.00000000000000	-0.06177600000000	0.00000000000000	17.73913900000000	0.00000000000000	0.00000000000000	6.50208100000000	0.00000000000000	
16.58326600000000	-44.20149300000000	790.86650099999997	49.86483600000000	0.09073900000000	0.00000000000000	0.10758600000000	-10.55764400000000	76.45635000000000	11.30598300000000	0.35259600000000	0.00000000000000	-0.06200800000000	0.00000000000000	17.64013400000000	0.00000000000000	0.00000000000000	6.79935100000000	0.00000000000000	
16.58495600000000	-44.58021000000000	787.87661100000003	49.40108100000000	0.09020600000000	0.00000000000000	0.10746500000000	-10.38308200000000	81.22077100000000	11.56152200000000	0.35460500000000	0.00000000000000	-0.06223400000000	0.00000000000000	17.54337200000000	0.00000000000000	0.00000000000000	7.05157000000000	0.00000000000000	
16.58660500000000	-44.97713500000000	784.78112599999997	48.91609900000000	0.08967100000000	0.00000000000000	0.10734100000000	-10.08885100000000	85.83708600000000	11.73908400000000	0.35643800000000	0.00000000000000	-0.06245500000000	0.00000000000000	17.44895900000000	0.00000000000000	0.00000000000000	7.26371000000000	0.00000000000000	
16.58826800000000	-45.39224300000000	781.57937100000004	48.41030400000000	0.08913300000000	0.00000000000000	0.10721400000000	-9.69200500000000	90.35602700000000	11.85084200000000	0.35811300000000	0.00000000000000	-0.06267300000000	0.00000000000000	17.35698300000000	0.00000000000000	0.00000000000000	7.44166700000000	0.00000000000000	
16.58994500000000	-45.82542900000000	778.27059999999994	47.88414800000000	0.08859200000000	0.00000000000000	0.10708400000000	-9.20968500000000	94.83131200000000	11.90921200000000	0.35964100000000	0.00000000000000	-0.06288800000000	0.00000000000000	17.26752200000000	0.00000000000000	0.00000000000000	7.59166300000000	0.00000000000000	
16.59160000000000	-46.27650200000000	774.85399199999995	47.33811300000000	0.08804700000000	0.00000000000000	0.10695100000000	-8.65796100000000	99.31535000000000	11.92592600000000	0.36103700000000	0.00000000000000	-0.06309900000000	0.00000000000000	17.18064000000000	0.00000000000000	0.00000000000000	7.71971000000000	0.00000000000000	
16.59327400000000	-46.74518600000000	771.32865100000004	46.77271700000000	0.08749900000000	0.00000000000000	0.10681600000000	-8.05096000000000	103.85576100000000	11.91131200000000	0.36231000000000	0.00000000000000	-0.06330800000000	0.00000000000000	17.09638500000000	0.00000000000000	0.00000000000000	7.83119100000000	0.00000000000000	
16.59495700000000	-47.23111600000000	767.69360800000004	46.18850700000000	0.08694600000000	0.00000000000000	0.10667800000000	-7.40029300000000	108.49284299999999	11.87381000000000	0.36347100000000	0.00000000000000	-0.06351400000000	0.00000000000000	17.01479100000000	0.00000000000000	0.00000000000000	7.93056100000000	0.00000000000000	
16.59659900000000	-47.73383900000000	763.94782399999997	45.58606100000000	0.08638800000000	0.00000000000000	0.10653800000000	-6.71477100000000	113.25800099999999	11.81970500000000	0.36452800000000	0.00000000000000	-0.06371800000000	0.00000000000000	16.93587700000000	0.00000000000000	0.00000000000000	8.02116600000000	0.00000000000000	
16.59827100000000	-48.25280900000000	760.09019400000000	44.96598400000000	0.08582600000000	0.00000000000000	0.10639500000000	-6.00038000000000	118.17310400000000	11.75306900000000	0.36549000000000	0.00000000000000	-0.06392000000000	0.00000000000000	16.85964700000000	0.00000000000000	0.00000000000000	8.10518700000000	0.00000000000000	
16.59994300000000	-48.78738900000000	756.11954800000001	44.32890600000000	0.08525800000000	0.00000000000000	0.10625000000000	-5.26047000000000	123.25062699999999	11.67587600000000	0.36636400000000	0.00000000000000	-0.06411900000000	0.00000000000000	16.78608800000000	0.00000000000000	0.00000000000000	8.18367600000000	0.00000000000000	
16.60160400000000	-49.33684800000000	752.03465600000004	43.67548500000000	0.08468500000000	0.00000000000000	0.10610200000000	-4.49610900000000	128.49444500000001	11.58825000000000	0.36715500000000	0.00000000000000	-0.06431700000000	0.00000000000000	16.71517100000000	0.00000000000000	0.00000000000000	8.25667000000000	0.00000000000000	
16.60327300000000	-49.90036300000000	747.83423400000004	43.00640000000000	0.08410500000000	0.00000000000000	0.10595200000000	-3.70653700000000	133.90108499999999	11.48880300000000	0.36787100000000	0.00000000000000	-0.06451300000000	0.00000000000000	16.64685300000000	0.00000000000000	0.00000000000000	8.32336600000000	0.00000000000000	
16.60495800000000	-50.47701500000000	743.51694999999995	42.32235000000000	0.08352000000000	0.00000000000000	0.10580000000000	-2.88967600000000	139.46126200000000	11.37502000000000	0.36851600000000	0.00000000000000	-0.06470700000000	0.00000000000000	16.58107100000000	0.00000000000000	0.00000000000000	8.38232000000000	0.00000000000000	
16.60660400000000	-51.06579400000000	739.08142799999996	41.62405700000000	0.08292800000000	0.00000000000000	0.10564500000000	-2.04264100000000	145.16153700000001	11.24365700000000	0.36909500000000	0.00000000000000	-0.06489900000000	0.00000000000000	16.51774700000000	0.00000000000000	0.00000000000000	8.43166500000000	0.00000000000000	
16.60828300000000	-51.66559600000000	734.52625599999999	40.91225800000000	0.08233000000000	0.00000000000000	0.10548900000000	-1.16222100000000	150.98594499999999	11.09111900000000	0.36961200000000	0.00000000000000	-0.06508900000000	0.00000000000000	16.45678600000000	0.00000000000000	0.00000000000000	8.46931300000000	0.00000000000000	
16.60995400000000	-52.27522500000000	729.84999600000003	40.18770700000000	0.08172500000000	0.00000000000000	0.10533100000000	-0.24529100000000	156.91748200000001	10.91379300000000	0.37007200000000	0.00000000000000	-0.06527800000000	0.00000000000000	16.39807700000000	0.00000000000000	0.00000000000000	8.49314200000000	0.00000000000000	
16.61160500000000	-52.89339400000000	725.05118900000002	39.45117400000000	0.08111300000000	0.00000000000000	0.10517000000000	0.71085300000000	162.93937099999999	10.70832000000000	0.37047700000000	0.00000000000000	-0.06546400000000	0.00000000000000	16.34149000000000	0.00000000000000	0.00000000000000	8.50114900000000	0.00000000000000	
16.61327000000000	-53.51872700000000	720.12836600000003	38.70344100000000	0.08049500000000	0.00000000000000	0.10500800000000	1.70825400000000	169.03604999999999	10.47180100000000	0.37083200000000	0.00000000000000	-0.06564900000000	0.00000000000000	16.28688100000000	0.00000000000000	0.00000000000000	8.49156900000000	0.00000000000000	
16.61495900000000	-54.14976100000000	715.08005700000001	37.94530100000000	0.07986900000000	0.00000000000000	0.10484500000000	2.74814200000000	175.19387100000000	10.20193100000000	0.37113900000000	0.00000000000000	-0.06583200000000	0.00000000000000	16.23408700000000	0.00000000000000	0.00000000000000	8.46295200000000	0.00000000000000	
16.61660400000000	-54.78495000000000	709.90480400000001	37.17755500000000	0.07923700000000	0.00000000000000	0.10468000000000	3.83087100000000	181.40151700000001	9.89706700000000	0.37140000000000	0.00000000000000	-0.06601300000000	0.00000000000000	16.18292900000000	0.00000000000000	0.00000000000000	8.41420700000000	0.00000000000000	
16.61827000000000	-55.42266400000000	704.60117000000002	36.40101600000000	0.07859800000000	0.00000000000000	0.10451300000000	4.95592300000000	187.65015199999999	9.55623800000000	0.37161800000000	0.00000000000000	-0.06619200000000	0.00000000000000	16.13321300000000	0.00000000000000	0.00000000000000	8.34461400000000	0.00000000000000	
16.61994100000000	-56.06119700000000	699.16775299999995	35.61649900000000	0.07795100000000	0.00000000000000	0.10434600000000	6.12197900000000	193.93335900000000	9.17911200000000	0.37179600000000	0.00000000000000	-0.06636900000000	0.00000000000000	16.08473000000000	0.00000000000000	0.00000000000000	8.25380700000000	0.00000000000000	
16.62160800000000	-56.69876500000000	693.60320100000001	34.82482600000000	0.07729800000000	0.00000000000000	0.10417600000000	7.32702300000000	200.24690699999999	8.76591600000000	0.37193400000000	0.00000000000000	-0.06654300000000	0.00000000000000	16.03725200000000	0.00000000000000	0.00000000000000	8.14173600000000	0.00000000000000	
16.62326700000000	-57.33351800000000	687.90622399999995	34.02682100000000	0.07663800000000	0.00000000000000	0.10400600000000	8.56848000000000	206.58840100000000	8.31735000000000	0.37203500000000	0.00000000000000	-0.06671600000000	0.00000000000000	15.99054000000000	0.00000000000000	0.00000000000000	8.00861900000000	0.00000000000000	
